<?xml version="1.0" encoding="UTF-8" standalone="no"?>
<!DOCTYPE svg PUBLIC "-//W3C//DTD SVG 20010904//EN"
              "http://www.w3.org/TR/2001/REC-SVG-20010904/DTD/svg10.dtd">

<svg xmlns="http://www.w3.org/2000/svg"
     width="1.59333in" height="1.59in"
     viewBox="0 0 478 477">
  <path id="Selection"
        fill="#d3869b" stroke="#b16286" stroke-width="2"
        d="M 217.00,0.21
           C 217.00,0.21 200.00,2.43 200.00,2.43
             168.62,7.70 139.24,18.76 112.00,35.20
             62.26,65.24 24.49,116.25 8.58,172.00
             4.48,186.38 0.02,209.19 0.00,224.00
             0.00,224.00 0.00,253.00 0.00,253.00
             0.03,271.56 6.43,300.42 12.69,318.00
             30.53,368.08 64.73,412.40 110.00,440.58
             121.01,447.43 133.11,453.26 145.00,458.42
             166.95,467.97 199.01,476.72 223.00,477.00
             223.00,477.00 253.00,477.00 253.00,477.00
             259.67,476.99 266.40,476.05 273.00,475.13
             305.87,470.56 335.37,459.74 364.00,442.99
             386.49,429.83 406.61,411.93 423.25,392.00
             451.30,358.40 470.11,316.37 476.13,273.00
             476.13,273.00 478.00,255.00 478.00,255.00
             478.00,255.00 478.00,224.00 478.00,224.00
             477.94,182.57 457.11,130.09 432.85,97.00
             414.84,72.45 390.34,49.43 364.00,34.01
             364.00,34.01 340.00,21.74 340.00,21.74
             315.57,9.95 280.21,0.04 253.00,0.21
             253.00,0.21 217.00,0.21 217.00,0.21 Z
           M 61.11,146.14
           C 61.11,146.14 92.00,146.14 92.00,146.14
             92.00,146.14 120.00,146.14 120.00,146.14
             135.19,146.19 149.94,155.64 158.25,168.00
             170.85,186.74 168.00,208.60 168.00,230.00
             168.00,230.00 168.00,262.00 168.00,262.00
             168.00,262.00 168.00,278.00 168.00,278.00
             167.91,296.00 159.94,312.95 145.00,323.28
             140.35,326.49 136.38,328.15 131.00,329.80
             124.18,331.88 117.12,332.99 110.00,333.00
             110.00,333.00 70.00,333.00 70.00,333.00
             66.87,333.00 62.01,333.27 59.51,331.15
             56.80,328.84 57.02,324.25 57.00,321.00
             57.00,321.00 57.00,305.00 57.00,305.00
             57.00,305.00 57.00,217.00 57.00,217.00
             57.00,217.00 57.00,157.00 57.00,157.00
             57.01,152.10 56.16,148.80 61.11,146.14 Z
           M 220.00,186.00
           C 220.00,186.00 220.00,219.00 220.00,219.00
             220.00,219.00 243.00,219.00 243.00,219.00
             245.77,219.01 249.44,218.71 251.69,220.60
             253.97,222.53 253.95,225.27 254.00,228.00
             254.00,228.00 254.00,250.00 254.00,250.00
             253.95,252.72 254.03,255.29 251.69,257.15
             249.41,258.95 245.76,258.96 243.00,259.00
             243.00,259.00 220.00,259.00 220.00,259.00
             220.00,259.00 220.00,284.00 220.00,284.00
             220.02,286.73 219.73,290.25 222.31,291.98
             224.53,293.45 232.10,293.00 235.00,293.00
             235.00,293.00 267.00,293.00 267.00,293.00
             269.24,293.00 272.79,292.79 274.70,294.02
             276.95,295.48 277.55,298.53 277.91,301.00
             277.91,301.00 277.91,320.00 277.91,320.00
             277.98,323.48 278.14,327.84 275.49,330.49
             272.66,333.32 267.70,332.99 264.00,333.00
             264.00,333.00 209.00,333.00 209.00,333.00
             192.70,332.97 180.03,324.31 180.00,307.00
             180.00,307.00 180.00,171.00 180.00,171.00
             180.03,155.18 190.50,146.03 206.00,146.00
             206.00,146.00 267.00,146.00 267.00,146.00
             269.64,146.01 273.38,145.67 275.44,147.60
             278.04,150.03 277.98,155.68 278.00,159.00
             278.03,164.52 279.09,179.70 275.44,183.49
             272.87,186.15 268.41,185.98 265.00,186.00
             265.00,186.00 220.00,186.00 220.00,186.00 Z
           M 360.00,254.00
           C 362.93,247.30 363.82,240.94 365.74,234.00
             365.74,234.00 375.73,196.00 375.73,196.00
             375.73,196.00 384.22,163.00 384.22,163.00
             385.09,159.64 387.27,150.53 389.43,148.31
             392.03,145.64 395.59,146.01 399.00,146.00
             399.00,146.00 420.00,146.00 420.00,146.00
             423.04,146.00 428.05,145.56 429.97,148.43
             431.79,151.14 429.92,157.05 429.09,160.00
             429.09,160.00 421.29,189.00 421.29,189.00
             421.29,189.00 407.42,242.00 407.42,242.00
             407.42,242.00 391.58,300.00 391.58,300.00
             387.73,314.36 379.00,331.74 362.00,332.90
             346.93,333.93 334.28,319.08 329.89,306.00
             329.89,306.00 323.42,281.00 323.42,281.00
             323.42,281.00 312.48,241.00 312.48,241.00
             312.48,241.00 298.85,189.00 298.85,189.00
             298.85,189.00 290.79,159.00 290.79,159.00
             290.16,156.15 288.40,150.89 290.04,148.31
             291.78,145.56 296.16,146.01 299.00,146.00
             299.00,146.00 322.00,146.00 322.00,146.00
             325.75,146.03 328.76,145.84 331.28,149.15
             333.17,151.63 335.39,161.51 336.23,165.00
             336.23,165.00 344.42,196.00 344.42,196.00
             344.42,196.00 353.13,229.00 353.13,229.00
             354.96,236.35 357.15,247.30 360.00,254.00 Z" />
</svg>
