<?xml version="1.0" encoding="UTF-8" standalone="no"?>
<!DOCTYPE svg PUBLIC "-//W3C//DTD SVG 20010904//EN"
              "http://www.w3.org/TR/2001/REC-SVG-20010904/DTD/svg10.dtd">

<svg xmlns="http://www.w3.org/2000/svg"
     width="6.08149mm" height="6.08149mm"
     viewBox="0 0 480 480">
  <path id="Selection"
        fill="#fb4934" stroke="#cc241d" stroke-width="2"
        d="M 203.00,1.15
           C 177.32,6.16 156.70,11.78 133.00,23.26
             81.54,48.18 40.29,92.55 18.00,145.00
             10.74,162.07 1.03,192.65 1.00,211.00
             1.00,211.00 1.00,269.00 1.00,269.00
             1.02,282.42 6.88,303.97 11.03,317.00
             32.76,385.31 88.23,441.16 155.00,466.05
             172.53,472.58 199.35,479.78 218.00,480.00
             218.00,480.00 260.00,480.00 260.00,480.00
             286.69,479.96 327.55,467.29 351.00,454.69
             382.67,437.68 407.02,418.21 429.55,390.00
             449.66,364.83 463.63,335.85 472.43,305.00
             476.28,291.48 479.98,274.05 480.00,260.00
             480.00,260.00 480.00,219.00 480.00,219.00
             479.96,210.04 476.80,190.88 474.52,182.00
             459.96,125.35 427.80,77.01 380.00,42.91
             358.73,27.73 334.90,16.64 310.00,8.98
             298.69,5.50 280.67,1.02 269.00,1.15
             269.00,1.15 238.00,1.15 238.00,1.15
             238.00,1.15 203.00,1.15 203.00,1.15 Z
           M 250.00,183.00
           C 271.28,184.72 289.97,188.03 310.00,195.81
             316.27,198.25 324.08,202.06 330.00,205.31
             332.16,206.50 336.97,209.86 339.00,210.17
             342.04,210.63 346.92,206.99 350.00,205.68
             355.24,203.45 360.37,202.89 366.00,203.01
             379.44,203.32 391.59,210.93 397.62,223.00
             406.24,240.24 399.94,265.59 381.00,273.00
             383.05,281.42 381.89,288.69 380.20,297.00
             374.07,327.15 352.78,346.76 327.00,361.42
             308.48,371.95 286.02,377.64 265.00,380.15
             265.00,380.15 245.00,382.00 245.00,382.00
             211.50,382.05 179.37,376.08 150.00,359.28
             128.63,347.06 110.00,328.89 102.34,305.00
             100.52,299.31 99.07,294.01 99.00,288.00
             98.96,284.60 99.52,276.91 97.98,274.18
             96.70,271.94 91.62,268.60 89.18,265.96
             83.39,259.69 79.39,250.56 79.04,242.00
             78.18,220.66 94.12,204.70 115.00,203.18
             119.32,202.87 127.02,204.44 131.00,206.17
             133.78,207.39 138.22,210.60 141.00,210.47
             143.33,210.35 146.94,207.83 149.00,206.60
             149.00,206.60 163.00,199.31 163.00,199.31
             175.44,193.61 191.53,188.77 205.00,186.26
             205.00,186.26 222.00,184.04 222.00,184.04
             225.04,183.91 229.13,184.49 231.57,182.40
             234.78,179.66 236.67,165.63 237.60,161.00
             237.60,161.00 247.13,116.00 247.13,116.00
             248.02,112.31 249.95,101.60 251.73,99.13
             255.99,93.26 264.08,96.02 270.00,97.20
             270.00,97.20 301.00,103.80 301.00,103.80
             301.00,103.80 313.91,106.22 313.91,106.22
             317.30,105.95 320.19,101.61 323.00,99.39
             327.32,95.98 332.54,94.26 338.00,94.04
             342.37,93.86 346.96,94.47 351.00,96.21
             360.60,100.34 365.87,108.71 366.00,119.00
             366.06,123.99 366.31,128.39 364.00,133.00
             359.07,142.87 348.87,148.43 338.00,147.96
             329.01,147.57 321.11,142.67 316.48,135.00
             312.94,129.14 313.80,125.52 309.86,123.51
             309.86,123.51 298.00,120.79 298.00,120.79
             298.00,120.79 277.00,116.20 277.00,116.20
             274.17,115.63 267.91,113.70 265.58,115.69
             263.48,117.49 261.69,129.63 260.87,133.00
             260.87,133.00 250.00,183.00 250.00,183.00 Z
           M 184.00,242.52
           C 174.97,243.71 168.34,247.21 164.53,256.00
             158.43,270.08 168.80,286.29 184.00,286.96
             209.82,288.09 215.66,254.91 196.00,245.00
             192.29,243.13 188.11,242.44 184.00,242.52 Z
           M 289.00,243.53
           C 263.38,251.19 268.89,286.40 293.00,286.99
             299.59,287.15 304.82,286.47 309.91,281.79
             321.83,270.82 318.62,249.86 303.00,244.13
             298.66,242.54 293.49,242.79 289.00,243.53 Z
           M 184.32,323.08
           C 180.81,326.92 183.60,329.67 187.02,332.48
             192.01,336.59 201.73,340.82 208.00,342.51
             229.91,348.43 264.40,347.78 285.00,337.74
             288.73,335.92 295.07,332.47 297.22,328.91
             298.77,326.35 298.40,322.82 294.89,322.54
             292.13,322.32 289.12,325.01 287.00,326.52
             283.16,329.24 280.42,330.70 276.00,332.31
             260.88,337.82 250.69,338.02 235.00,338.00
             223.84,337.98 211.17,335.32 201.00,330.69
             195.94,328.39 189.54,321.91 184.32,323.08 Z" />
</svg>
