<?xml version="1.0" encoding="UTF-8" standalone="no"?>
<!DOCTYPE svg PUBLIC "-//W3C//DTD SVG 20010904//EN"
              "http://www.w3.org/TR/2001/REC-SVG-20010904/DTD/svg10.dtd">

<svg xmlns="http://www.w3.org/2000/svg"
     width="1.6in" height="1.6in"
     viewBox="0 0 480 480">
  <path id="Selection"
        fill="#8ec07c" stroke="#689d6a" stroke-width="2"
        d="M 207.00,0.23
           C 207.00,0.23 185.00,4.51 185.00,4.51
             168.91,7.95 148.90,15.29 134.00,22.32
             83.37,46.22 40.40,91.64 18.43,143.00
             9.85,163.04 0.26,196.32 0.00,218.00
             0.00,218.00 0.00,257.00 0.00,257.00
             0.02,269.11 2.40,280.26 4.88,292.00
             14.04,335.23 37.55,377.93 69.00,408.99
             95.54,435.18 127.67,454.72 163.00,466.49
             177.34,471.27 191.97,474.91 207.00,476.72
             207.00,476.72 215.00,477.28 215.00,477.28
             215.00,477.28 231.00,479.00 231.00,479.00
             268.16,479.43 307.34,472.80 341.00,456.51
             374.19,440.45 400.78,420.35 424.56,392.00
             441.84,371.41 457.63,343.52 466.17,318.00
             471.38,302.41 475.38,286.28 477.89,270.00
             477.89,270.00 477.89,259.00 477.89,259.00
             477.89,259.00 479.00,247.00 479.00,247.00
             479.04,220.44 478.14,201.01 471.25,175.00
             452.16,102.97 397.81,43.41 329.00,15.80
             315.49,10.38 302.20,6.66 288.00,3.64
             281.67,2.30 272.31,0.08 266.00,0.23
             266.00,0.23 207.00,0.23 207.00,0.23 Z
           M 392.00,115.00
           C 388.89,122.19 384.75,128.37 378.96,133.72
             376.72,135.79 370.87,140.10 371.26,143.52
             371.60,146.50 375.70,146.93 378.00,146.97
             385.30,147.09 392.10,143.86 399.00,142.00
             394.26,148.82 389.55,153.87 383.00,158.98
             379.83,161.46 374.01,164.43 372.60,168.04
             371.73,170.26 372.10,175.27 371.83,178.00
             371.83,178.00 370.17,189.00 370.17,189.00
             370.17,189.00 369.54,200.00 369.54,200.00
             364.10,230.98 357.99,253.61 341.55,281.00
             311.69,330.77 259.64,364.62 202.00,371.71
             202.00,371.71 172.00,373.00 172.00,373.00
             172.00,373.00 160.00,372.09 160.00,372.09
             129.27,369.98 110.55,362.83 83.00,350.00
             86.84,348.48 89.99,349.19 94.00,348.91
             94.00,348.91 110.00,346.80 110.00,346.80
             123.92,344.70 140.73,339.91 153.00,333.00
             158.13,330.11 163.69,326.90 167.89,322.71
             169.54,321.07 171.63,318.76 170.18,316.31
             168.27,313.08 156.56,312.61 150.00,309.99
             136.09,304.42 114.11,288.27 111.00,273.00
             117.59,273.87 124.70,274.03 131.00,271.30
             133.11,270.38 136.55,268.03 135.66,265.27
             134.93,262.99 131.00,262.19 129.00,261.57
             122.94,259.66 118.19,257.23 113.00,253.56
             99.68,244.17 85.38,222.76 85.00,206.00
             93.18,207.85 96.18,209.95 105.00,210.04
             107.64,210.07 111.50,210.15 112.40,206.92
             113.32,203.59 108.13,200.57 106.01,198.70
             100.61,193.92 95.27,186.50 92.11,180.00
             86.02,167.49 84.84,158.62 85.00,145.00
             85.11,136.60 88.29,128.82 91.00,121.00
             91.00,121.00 114.00,143.33 114.00,143.33
             137.22,161.80 158.71,173.44 187.00,182.19
             197.04,185.30 212.59,188.87 223.00,189.00
             226.81,189.04 233.78,189.79 236.40,186.69
             238.52,184.17 237.96,177.53 238.42,174.00
             240.34,159.46 238.19,155.78 245.09,140.00
             253.60,120.56 273.31,105.26 295.00,105.00
             295.00,105.00 307.00,105.00 307.00,105.00
             317.62,105.13 332.00,109.88 341.00,115.47
             347.57,119.54 350.03,124.15 354.00,125.23
             356.66,125.96 364.21,124.49 367.00,123.70
             367.00,123.70 392.00,115.00 392.00,115.00 Z" />
</svg>
