<?xml version="1.0" encoding="UTF-8" standalone="no"?>
<!DOCTYPE svg PUBLIC "-//W3C//DTD SVG 20010904//EN"
              "http://www.w3.org/TR/2001/REC-SVG-20010904/DTD/svg10.dtd">

<svg xmlns="http://www.w3.org/2000/svg"
     width="6.08149mm" height="6.08149mm"
     viewBox="0 0 480 480">
  <path id="Selection"
        fill="#83a598" stroke="#458588" stroke-width="2"
        d="M 201.00,0.51
           C 201.00,0.51 187.00,3.23 187.00,3.23
             168.39,7.53 151.36,13.33 134.00,21.31
             82.73,44.86 38.71,91.25 16.58,143.00
             9.37,159.86 0.03,187.78 0.00,206.00
             0.00,206.00 0.00,273.00 0.00,273.00
             0.03,289.35 7.20,311.62 12.95,327.00
             35.63,387.70 84.70,436.79 144.00,462.00
             160.87,469.17 178.02,473.96 196.00,477.31
             201.38,478.31 200.73,478.92 207.00,479.00
             207.00,479.00 270.00,479.00 270.00,479.00
             280.41,478.98 298.74,474.28 309.00,471.20
             341.08,461.58 367.92,447.73 394.00,426.54
             417.03,407.83 436.14,384.72 450.85,359.00
             461.93,339.62 470.29,318.73 475.33,297.00
             476.79,290.71 479.92,278.00 480.00,272.00
             480.00,272.00 480.00,209.00 480.00,209.00
             479.98,193.51 470.47,162.80 464.55,148.00
             440.59,88.09 392.98,41.74 334.00,16.58
             318.69,10.05 286.26,0.03 270.00,0.00
             270.00,0.00 209.00,0.00 209.00,0.00
             205.68,0.01 204.33,-0.01 201.00,0.51 Z
           M 187.00,118.09
           C 187.00,118.09 227.00,118.09 227.00,118.09
             227.00,118.09 285.00,118.09 285.00,118.09
             285.00,118.09 301.00,119.00 301.00,119.00
             301.00,119.00 318.00,119.00 318.00,119.00
             318.00,119.00 338.00,120.91 338.00,120.91
             356.48,122.17 378.46,121.68 393.00,135.09
             407.32,148.31 410.14,169.36 411.04,188.00
             411.04,188.00 413.00,211.00 413.00,211.00
             413.00,211.00 413.00,219.00 413.00,219.00
             413.00,219.00 414.00,234.00 414.00,234.00
             414.00,234.00 413.00,267.00 413.00,267.00
             413.00,267.00 411.09,290.00 411.09,290.00
             409.65,310.62 407.73,331.47 391.00,345.79
             380.53,354.75 365.09,355.92 352.00,357.17
             352.00,357.17 337.00,358.17 337.00,358.17
             337.00,358.17 317.00,360.00 317.00,360.00
             317.00,360.00 302.00,360.00 302.00,360.00
             302.00,360.00 285.00,361.00 285.00,361.00
             285.00,361.00 194.00,361.00 194.00,361.00
             194.00,361.00 178.00,360.00 178.00,360.00
             178.00,360.00 160.00,360.00 160.00,360.00
             160.00,360.00 141.00,358.09 141.00,358.09
             124.34,356.95 102.85,357.15 89.00,346.47
             72.66,333.88 71.29,317.87 68.58,299.00
             68.58,299.00 66.00,267.00 66.00,267.00
             66.00,267.00 65.00,234.00 65.00,234.00
             65.00,234.00 66.00,218.00 66.00,218.00
             66.00,218.00 67.91,189.00 67.91,189.00
             69.33,168.67 71.54,147.30 88.00,133.21
             97.77,124.84 113.59,122.78 126.00,121.91
             126.00,121.91 142.00,120.83 142.00,120.83
             142.00,120.83 162.00,119.00 162.00,119.00
             170.32,118.99 178.75,119.47 187.00,118.09 Z
           M 207.00,192.00
           C 207.00,192.00 207.00,287.00 207.00,287.00
             207.00,287.00 240.00,268.42 240.00,268.42
             240.00,268.42 289.00,240.00 289.00,240.00
             284.02,234.68 267.17,226.27 260.00,222.15
             260.00,222.15 207.00,192.00 207.00,192.00 Z" />
</svg>
